<svg xmlns="http://www.w3.org/2000/svg" width="392" height="258" fill="none">
  <path fill-rule="evenodd" clip-rule="evenodd" d="M224.824 162.047c-1.538-3.512-3.628-6.552-6.283-9.124-2.655-2.582-5.764-4.61-9.322-6.075-3.56-1.486-7.342-2.219-11.353-2.219-4.485 0-8.695.938-12.623 2.825-3.931 1.899-7.313 4.572-10.146 8.038 1.331.352 2.648.89 3.954 1.589 1.295.711 2.46 1.515 3.48 2.426a22.292 22.292 0 0 1 6.957-4.904 20.08 20.08 0 0 1 8.329-1.773c2.867 0 5.566.539 8.079 1.599 2.52 1.063 4.721 2.526 6.599 4.388a20.53 20.53 0 0 1 4.465 6.55c1.084 2.498 1.623 5.182 1.623 8.061 0 1.848-.24 3.695-.711 5.549a23.093 23.093 0 0 1-2.062 5.286c-.917 1.67-2 3.201-3.281 4.591a18.614 18.614 0 0 1-4.353 3.513c-.543 1.623-.987 3.101-1.292 4.459-.322 1.362-.484 2.88-.484 4.575 3.116-.941 5.934-2.322 8.469-4.132a28.287 28.287 0 0 0 6.521-6.399 29.554 29.554 0 0 0 4.23-8.147c1.009-2.97 1.5-6.072 1.5-9.295 0-4.091-.769-7.898-2.296-11.381Zm-41.703 26.21c-1.88-1.887-3.381-4.108-4.479-6.661-1.097-2.563-1.649-5.291-1.649-8.206 0-2.004.254-3.914.764-5.73-.946-.971-2.127-1.822-3.545-2.53-1.426-.711-2.827-1.123-4.203-1.237a22.513 22.513 0 0 0-1.307 4.924 34.314 34.314 0 0 0-.359 5.039c0 3.303.539 6.456 1.63 9.446a28.618 28.618 0 0 0 4.526 8.122 28.962 28.962 0 0 0 6.916 6.214c2.674 1.738 5.626 2.974 8.852 3.724 1.061.233 2.13.402 3.218.501 1.078.101 2.152.157 3.217.198a50.61 50.61 0 0 1 .497-3.882 50.71 50.71 0 0 1 .794-3.845c-2.914 0-5.645-.54-8.201-1.626-2.554-1.076-4.777-2.566-6.671-4.451Z" fill="#00AA91"/>
  <path fill-rule="evenodd" clip-rule="evenodd" d="M207.924 184.877c.196-.55.486-1.25.882-2.091.389-.845.586-1.547.586-2.105 0-.738-.267-1.292-.794-1.648a4.074 4.074 0 0 0-1.799-.651c-.861-.114-1.556-.296-2.063-.525-.514-.229-.762-.849-.762-1.831 0-.398-.095-.819-.277-1.265-.168-.451-.518-.688-1.039-.688-.323 0-.641.102-.941.293-.3.207-.557.443-.752.711l.141-1.065c.05-.362.075-.718.075-1.078 0-.439-.155-.761-.479-.979a5.265 5.265 0 0 0-1.063-.565 48.045 48.045 0 0 0-1.13-.451c-.355-.142-.564-.357-.593-.632a37.53 37.53 0 0 1-.214-1.7c-.06-.571-.13-1.13-.207-1.693-.156-1.309-.888-1.968-2.202-1.968-.544 0-1.106.05-1.681.125-.569.078-1.123.149-1.68.239-.59.076-1.128.152-1.593.229a8.374 8.374 0 0 1-1.471.124c-1.18 0-2.324-.297-3.421-.881a17.74 17.74 0 0 1-3.014-2.009c-2.201-1.838-4.51-3.254-6.925-4.261-2.427-.997-5.07-1.504-7.94-1.504-.548 0-1.164.039-1.833.098-.669.066-1.339.148-2.002.261a18.05 18.05 0 0 0-1.972.476 9.32 9.32 0 0 0-1.747.725v3.998c1.225-.556 2.58-.962 4.072-1.221 1.495-.26 2.89-.39 4.186-.39 1.814 0 3.603.274 5.378.818.896.316 1.908.82 3.028 1.529 1.13.701 2.045 1.36 2.751 1.983a25.412 25.412 0 0 0 4.185 2.843c1.53.841 3.143 1.259 4.839 1.259.429 0 .905-.036 1.419-.123a27.142 27.142 0 0 0 1.588-.292 17.58 17.58 0 0 0 1.094-.297 4.039 4.039 0 0 1 1.092-.169c.393 0 .656.101.794.316.137.216.228.507.262.86l.238 3.13c.047.405.184.713.413.95.249.23.526.413.846.539.313.114.664.186 1.039.23.378.042.707.099.987.17.156.045.271.174.326.398.065.213.109.356.151.435.042.162.066.37.09.655.018.272.064.539.118.792.059.259.152.491.269.68.12.196.318.3.598.3.316 0 .566-.083.759-.243.198-.146.458-.236.769-.236.202 0 .347.077.45.217a.834.834 0 0 1 .145.502c0 .193-.021.365-.061.525a2.21 2.21 0 0 0-.058.535c0 .746.172 1.253.533 1.513.356.25.737.417 1.155.499.404.079.777.154 1.111.234.345.075.509.3.509.653 0 .121-.075.349-.21.709-.143.351-.309.773-.505 1.243-.198.466-.4.962-.615 1.482-.212.51-.401.945-.56 1.299a63.699 63.699 0 0 0-2.627 8.852c-.687 3.084-1.035 6.132-1.035 9.122 0 1.336.088 2.678.232 3.995.154 1.319.446 2.608.869 3.868h3.584a15.592 15.592 0 0 1-.771-3.562 34.593 34.593 0 0 1-.19-3.69c0-3.744.462-7.29 1.383-10.651a105.129 105.129 0 0 1 3.28-9.95ZM89.547 173.583v6.888h8.092v8.777c-3.167 1.936-6.905 2.917-11.117 2.917-3.67 0-7.022-.822-9.96-2.442-2.931-1.615-5.26-3.874-6.921-6.713-1.662-2.84-2.506-6.064-2.506-9.582 0-3.566.844-6.814 2.506-9.654 1.66-2.837 3.987-5.083 6.916-6.675 2.94-1.597 6.318-2.408 10.037-2.408 5.519 0 10.29 1.905 14.184 5.659l.549.53 5.559-5.562-.496-.547c-2.389-2.639-5.328-4.67-8.736-6.041-3.39-1.36-7.21-2.05-11.35-2.05-5.279 0-10.1 1.154-14.33 3.43-4.242 2.282-7.612 5.504-10.019 9.574-2.406 4.067-3.626 8.692-3.626 13.744 0 5.054 1.22 9.666 3.627 13.71 2.405 4.043 5.762 7.263 9.977 9.57 4.206 2.301 8.992 3.468 14.226 3.468 3.693 0 7.288-.574 10.69-1.708 3.411-1.138 6.448-2.795 9.025-4.927l.281-.232v-19.726H89.547Zm59.003-8.975c0-7.684-4.88-9.481-13.791-9.481h-11.552v18.456h11.552c9.394 0 13.791-1.29 13.791-8.975Zm-1.135 34.989-9.629-18.202c-.92.036-1.857.054-2.809.054h-11.77v18.148H114.4v-52.336h20.577c11.892 0 21.955 2.636 21.955 17.122 0 9.785-4.499 14.133-11.146 15.928l11.569 19.286h-9.94Zm173.549-34.989c0-7.684-4.882-9.481-13.791-9.481h-11.554v18.456h11.554c9.392 0 13.791-1.29 13.791-8.975Zm-13.574 16.841h-11.771v18.148h-8.806v-52.336h20.577c11.892 0 21.955 2.636 21.955 17.122 0 14.488-9.857 17.066-21.955 17.066Zm15.885-103.285c0-11.013-6.994-13.588-19.763-13.588h-16.554v26.449h16.554c13.462 0 19.763-1.849 19.763-12.861Zm-19.451 24.133h-16.866v26.006h-12.62v-75h29.486c17.04 0 31.461 3.78 31.461 24.54 0 20.758-14.123 24.454-31.461 24.454ZM110.327 78.164c0-11.013-6.993-13.588-19.761-13.588H74.01v26.449h16.555c13.461 0 19.761-1.848 19.761-12.861Zm-1.626 50.139-13.798-26.085c-1.32.053-2.66.079-4.026.079H74.011v26.006H61.39v-75h29.486c17.041 0 31.461 3.78 31.461 24.54 0 14.02-6.447 20.251-15.971 22.823l16.578 27.637H108.7Zm93.434-75h62.403v11.273h-24.944V128.3h-12.516V64.576h-24.943V53.304Zm-18.525 46.26h-27.973l13.986-31.778 13.987 31.778Zm-19.797-46.26L129.859 128.3h13.157l8.003-18.193h37.209l8.003 18.193h13.367l-34.061-74.996h-11.724Zm92.744 146.873c-6.955 0-12.463-2.032-16.367-6.037-3.9-4.001-5.878-9.799-5.878-17.229v-29.649h8.807v29.359c0 10.461 4.419 15.545 13.511 15.545 9.091 0 13.51-5.084 13.51-15.545v-29.359h8.807v29.649c0 7.43-1.977 13.228-5.878 17.229-3.904 4.005-9.412 6.037-16.367 6.037h-.145Z" fill="#0A0082"/>
</svg>